# xmcd CD database file
#
# Track frame offsets:
#	150
#	11897
#	25605
#	40140
#	52202
#	68335
#	83292
#	97452
#	108937
#	126497
#	136850
#	152415
#	163400
#	178755
#
# Disc length: 2570 seconds
#
# Revision: 1
# Processed by: cddbd v1.5.2PL0 Copyright (c) Steve Scherf et al.
# Submitted via: CDex 1.51
#
DISCID=b60a080e
DTITLE=J.J. Cale - Travel-Log
DYEAR=1989
DGENRE=Blues
TTITLE0=Shanghaid
TTITLE1=Hold On Baby
TTITLE2=No Time
TTITLE3=Lady Luck
TTITLE4=Disadvantage
TTITLE5=Lean On Me
TTITLE6=End Of The Line
TTITLE7=New Orleans
TTITLE8=Tijuana
TTITLE9=That Kind Of Thing
TTITLE10=Who's Talking
TTITLE11=Change Your Mind
TTITLE12=Humdinger
TTITLE13=River Boat Song
EXTD=YEAR: 1989
EXTT0=
EXTT1=
EXTT2=
EXTT3=
EXTT4=
EXTT5=
EXTT6=
EXTT7=
EXTT8=
EXTT9=
EXTT10=
EXTT11=
EXTT12=
EXTT13=
PLAYORDER=
